<svg xmlns="http://www.w3.org/2000/svg" viewBox="0 0 16 16">
  <defs>
    <style>.canvas{fill: none; opacity: 0;}.light-purple{fill: #212121; opacity: 1;}.light-blue{fill: #595959; opacity: 1;}.light-red{fill: #c50b17; opacity: 1;}.white{fill: #ffffff; opacity: 1;}</style>
  </defs>
  <title>ThreadStopped</title>
  <g id="canvas">
    <path class="canvas" d="M16,16H0V0H16Z" />
  </g>
  <g id="level-1">
    <path class="light-purple" d="M8,5A6.935,6.935,0,0,0,2.93,7.19,6.551,6.551,0,0,0,2.26,8,6.987,6.987,0,0,0,1,12H2A6,6,0,0,1,8,6a5.824,5.824,0,0,1,3.36,1.05A3.386,3.386,0,0,1,12,7a5.226,5.226,0,0,1,.97.09A6.964,6.964,0,0,0,8,5Z" />
    <path class="light-blue" d="M3.95,8.41A5.845,5.845,0,0,0,7.43,9.97a4.6,4.6,0,0,0-.32.97,6.422,6.422,0,0,1-.97-.2.073.073,0,0,1-.06-.02,6.751,6.751,0,0,1-.72-.24c-.12-.05-.24-.11-.36-.17A6.5,6.5,0,0,1,3.41,9.27a5.81,5.81,0,0,1,.54-.85ZM14,4v.01a5.794,5.794,0,0,1-.89,3.11,4.649,4.649,0,0,1,.97.34A6.962,6.962,0,0,0,15,4ZM2,4H1A6.987,6.987,0,0,0,2.26,8a6.551,6.551,0,0,1,.67-.81A5.867,5.867,0,0,1,2,4.01Z" />
    <path class="light-red" d="M12,16a4,4,0,1,1,4-4A4,4,0,0,1,12,16Z" />
    <path class="white" d="M10.5,10.5h3v3h-3Z" />
  </g>
</svg>
