<svg xmlns="http://www.w3.org/2000/svg" viewBox="0 0 16 16">
  <defs>
    <style>.canvas{fill: none; opacity: 0;}.light-defaultgrey-10{fill: #212121; opacity: 0.1;}.light-defaultgrey{fill: #212121; opacity: 1;}.light-blue{fill: #005dba; opacity: 1;}.white{fill: #ffffff; opacity: 1;}.cls-1{opacity:0.75;}</style>
  </defs>
  <title>CompiledHelpFile</title>
  <g id="canvas">
    <path class="canvas" d="M16,16H0V0H16Z" />
  </g>
  <g id="level-1">
    <g class="cls-1">
      <path class="light-defaultgrey-10" d="M7.254,13.5H1.5V1.5h7l3,3V7.05A4.907,4.907,0,0,0,7.254,13.5Z" />
      <path class="light-defaultgrey" d="M7.422,14H1.5L1,13.5V1.5L1.5,1h7l.354.146,3,3L12,4.5V7a4.988,4.988,0,0,0-1,.1V5H8V2H2V13H7.1A4.968,4.968,0,0,0,7.422,14Z" />
      <path class="light-defaultgrey" d="M7,5H3V4H7Zm3,2.422V7H3V8H9.027A5.016,5.016,0,0,1,10,7.422ZM7.422,10H3v1H7.1A4.968,4.968,0,0,1,7.422,10Z" />
    </g>
    <path class="light-blue" d="M12,16a4,4,0,1,1,4-4A4,4,0,0,1,12,16Z" />
    <path class="white" d="M11.571,14.813v-.8h.858v.8ZM12,9.188a1.731,1.731,0,0,1,.663.125,1.86,1.86,0,0,1,.549.345,1.488,1.488,0,0,1,.368.509,1.608,1.608,0,0,1,.134.628,1.293,1.293,0,0,1-.093.508,1.706,1.706,0,0,1-.248.408,3,3,0,0,1-.348.358q-.2.169-.4.364a.543.543,0,0,0-.167.264,1.532,1.532,0,0,0-.04.3v.1a.8.8,0,0,0,.007.106h-.858v-.3a1.29,1.29,0,0,1,.094-.508A1.692,1.692,0,0,1,11.9,12a1.943,1.943,0,0,1,.314-.314,2.745,2.745,0,0,0,.308-.282c.09-.1.17-.191.241-.283a.457.457,0,0,0,.094-.326.731.731,0,0,0-.067-.314.783.783,0,0,0-.181-.251.922.922,0,0,0-.274-.176A.772.772,0,0,0,12,9.991a.876.876,0,0,0-.335.063.867.867,0,0,0-.268.169.877.877,0,0,0-.187.258.639.639,0,0,0-.067.314h-.857a1.452,1.452,0,0,1,.134-.622,1.719,1.719,0,0,1,.368-.515,1.628,1.628,0,0,1,.542-.345A1.946,1.946,0,0,1,12,9.188Z" />
  </g>
</svg>
