<svg xmlns="http://www.w3.org/2000/svg" viewBox="0 0 16 16">
  <defs>
    <style>.canvas{fill: none; opacity: 0;}.light-yellow-10{fill: #996f00; opacity: 0.1;}.light-yellow-25{fill: #996f00; opacity: 0.25;}.light-yellow{fill: #996f00; opacity: 1;}</style>
  </defs>
  <title>IconLightFolderOpened</title>
  <g id="canvas" class="canvas">
    <path class="canvas" d="M16,16H0V0H16Z" />
  </g>
  <g id="level-1">
    <path class="light-yellow-10" d="M13.5,3.5v2h-5l-1,1h-5l-2,6V2.5h5l1,1Z" />
    <path class="light-yellow-25" d="M8.5,5.5h7l-2,7H.5l2-6h5Z" />
    <path class="light-yellow" d="M15.408,5H14V3.5L13.5,3H6.707l-.853-.854L5.5,2H.5L0,2.5v10l.5.5H13.541l.483-.371,1.868-7ZM1,3H5.293l.853.854L6.5,4H13V5H8.475l-.354.146L7.268,6H2.475L2,6.342,1,9.421Zm12.157,9H1.168L2.835,7h4.64l.353-.146L8.682,6h6.076Z" />
    <path class="light-yellow-25" d="M14,12.5H13V6h1Z" />
  </g>
</svg>
