<svg xmlns="http://www.w3.org/2000/svg" viewBox="0 0 16 16">
  <defs>
    <style>.canvas{fill: none; opacity: 0;}.light-defaultgrey-10{fill: #212121; opacity: 0.1;}.light-defaultgrey{fill: #212121; opacity: 1;}</style>
  </defs>
  <title>IconLightCloakOrHide</title>
  <g id="canvas" class="canvas">
    <path class="canvas" d="M16,16H0V0H16Z" />
  </g>
  <g id="level-1">
    <path class="light-defaultgrey-10" d="M7.658,6.534A2.573,2.573,0,0,1,8,6.5,2.5,2.5,0,0,1,10.5,9a2.573,2.573,0,0,1-.034.342Z" />
    <path class="light-defaultgrey-10" d="M10.085,10.375a2.5,2.5,0,1,1-3.46-3.46Z" />
    <path class="light-defaultgrey" d="M15,10H14A6,6,0,0,0,5.619,4.5l-.748-.748A6.986,6.986,0,0,1,15,10Z" />
    <path class="light-defaultgrey" d="M8.138,7.014l-.9-.9a2.961,2.961,0,0,1,3.654,3.654l-.9-.9A1.991,1.991,0,0,0,8.138,7.014Z" />
    <path class="light-defaultgrey" d="M1.854,2.146l-.708.708L3.21,4.917A6.968,6.968,0,0,0,1,10H2A5.971,5.971,0,0,1,3.917,5.624L5.573,7.28A2.941,2.941,0,0,0,5,9a3,3,0,0,0,3,3,2.941,2.941,0,0,0,1.72-.573l2.926,2.927.708-.708ZM8,11A2,2,0,0,1,6,9a1.964,1.964,0,0,1,.281-1.012l2.731,2.731A1.964,1.964,0,0,1,8,11Z" />
  </g>
</svg>
