<svg xmlns="http://www.w3.org/2000/svg" viewBox="0 0 16 16">
  <defs>
    <style>.canvas{fill: none; opacity: 0;}.light-purple{fill: #212121; opacity: 1;}.light-blue{fill: #595959; opacity: 1;}.light-green{fill: #1f801f; opacity: 1;}</style>
  </defs>
  <title>IconLightRunThread</title>
  <g id="canvas" class="canvas">
    <path class="canvas" d="M16,16H0V0H16Z" />
  </g>
  <g id="level-1">
    <path class="light-purple" d="M13.064,11.2a6.068,6.068,0,0,1-.6.8A5.995,5.995,0,0,0,2,16H1a6.956,6.956,0,0,1,1.264-4h0a7.061,7.061,0,0,1,.663-.809,6.967,6.967,0,0,1,10.128-.018C13.061,11.18,13.06,11.193,13.064,11.2Zm.382,2.3A5.957,5.957,0,0,1,14,16h1a6.951,6.951,0,0,0-.845-3.331A7.088,7.088,0,0,1,13.446,13.5Z" />
    <path class="light-blue" d="M2,8.009a5.954,5.954,0,0,0,.928,3.181h0A7.061,7.061,0,0,0,2.264,12,6.96,6.96,0,0,1,1.023,8.568ZM15,8a6.956,6.956,0,0,1-1.264,4,7.061,7.061,0,0,1-.664.81,6.963,6.963,0,0,1-9.664.459,6.042,6.042,0,0,1,.542-.857A5.966,5.966,0,0,0,12.46,12l0,0a6.068,6.068,0,0,0,.6-.8l.008-.011A5.947,5.947,0,0,0,14,8Z" />
    <path class="light-green" d="M7,4,0,8V0Z" />
  </g>
</svg>
