<svg xmlns="http://www.w3.org/2000/svg" viewBox="0 0 16 16">
  <defs>
    <style>.canvas{fill: none; opacity: 0;}.light-defaultgrey-10{fill: #212121; opacity: 0.1;}.light-defaultgrey{fill: #212121; opacity: 1;}</style>
  </defs>
  <title>StringRegistryValue</title>
  <g id="canvas">
    <path class="canvas" d="M16,16H0V0H16Z" />
  </g>
  <g id="level-1">
    <path class="light-defaultgrey-10" d="M14.5,1.5V12H2.5V1.5Z" />
    <path class="light-defaultgrey" d="M15,1.5V12H14V2H3V12H2V1.5L2.5,1h12ZM7,10V9.723A2,2,0,1,1,7,6.277V6H8v4ZM7,8A1,1,0,1,0,6,9,1,1,0,0,0,7,8Zm6,0a1.988,1.988,0,0,1-3,1.723V10H9V4h1V6.277A1.988,1.988,0,0,1,13,8ZM12,8a1,1,0,1,0-1,1A1,1,0,0,0,12,8ZM2,14H3V13H2Zm2,0H5V13H4Zm2,0H7V13H6Zm2,0H9V13H8Zm2,0h1V13H10Zm2,0h1V13H12Zm2,0h1V13H14Z" />
  </g>
</svg>
