<svg xmlns="http://www.w3.org/2000/svg" viewBox="0 0 16 16"><defs><style>.icon-canvas-transparent{fill:#f6f6f6;opacity:0;}.cls-1{fill:#3e3e40;}.cls-2{fill:#fff;}.cls-3{fill:#006cca;}.cls-4{fill:#febd39;}</style></defs><title>UacShield_16x</title><g id="canvas"><path class="icon-canvas-transparent" d="M16,0V16H0V0Z"/></g><g id="outline"><path class="cls-1" d="M8.3,15.953l-.055.016H7.8l-.054-.016C1.629,14.2.721,7.37,1.093,4l.06-.534L8.021.031l6.868,3.437L14.948,4C15.321,7.37,14.413,14.2,8.3,15.953Z"/></g><g id="iconBg"><path class="cls-2" d="M13.838,7.583c-.05.326-.112.658-.19,1H8.521v6.308a2.023,2.023,0,0,1-.5.172,1.515,1.515,0,0,1-.5-.172V8.583H2.394c-.078-.342-.141-.674-.19-1H7.521V1.315l.5-.252.5.252V7.583Z"/><path class="cls-3" d="M13.648,8.583a8.189,8.189,0,0,1-5.127,6.291V8.583ZM8.521,14.875h0c-.169.061-.321.137-.5.189C8.2,15.011,8.352,14.936,8.521,14.875ZM7.516,1.317,2.07,4.062a15.316,15.316,0,0,0,.137,3.521H7.521V3.094h0ZM2.205,7.589h0V7.583h0Z"/><path class="cls-4" d="M7.521,14.874c.169.061.32.137.5.189-.179-.052-.331-.112-.5-.172ZM2.394,8.583a8.185,8.185,0,0,0,5.127,6.291V8.583ZM13.972,4.062,8.516,1.312h0l.005,0V7.583h5.314A15.316,15.316,0,0,0,13.972,4.062Z"/></g></svg>