<svg xmlns="http://www.w3.org/2000/svg" viewBox="0 0 16 16">
  <defs>
    <style>.canvas{fill: none; opacity: 0;}.light-blue-10{fill: #005dba; opacity: 0.0;}.light-blue{fill: #000000; opacity: 1;}</style>
  </defs>
  <title>IconLightASPWebSite</title>
  <g id="canvas">
    <path class="canvas" d="M16,16H0V0H16Z" />
  </g>
  <g id="level-1">
    <path class="light-blue-10" d="M14.5,8a6.5,6.5,0,1,1-1.9-4.6A6.5,6.5,0,0,1,14.5,8Z" />
    <path class="light-blue" d="M8,1a7.009,7.009,0,1,0,4.947,2.053A7,7,0,0,0,8,1Zm5.188,4H11.053A10.489,10.489,0,0,0,9.789,2.273,6.02,6.02,0,0,1,13.188,5ZM10.5,8a9.472,9.472,0,0,1-.222,2H5.722a9.12,9.12,0,0,1,0-4h4.556A9.472,9.472,0,0,1,10.5,8ZM8,2c.126,0,.249.011.373.019A9.478,9.478,0,0,1,10.005,5H6A9.479,9.479,0,0,1,7.628,2.019C7.752,2.011,7.874,2,8,2Zm-1.79.273A10.522,10.522,0,0,0,4.946,5H2.812A6.025,6.025,0,0,1,6.21,2.273ZM2,8a5.98,5.98,0,0,1,.35-2H4.7a10.2,10.2,0,0,0,0,4H2.35A5.98,5.98,0,0,1,2,8Zm.812,3H4.947a10.489,10.489,0,0,0,1.264,2.727A6.024,6.024,0,0,1,2.812,11ZM8,14c-.126,0-.249-.011-.373-.019A9.487,9.487,0,0,1,6,11h4.01a9.478,9.478,0,0,1-1.632,2.981C8.249,13.989,8.126,14,8,14Zm1.789-.273A10.489,10.489,0,0,0,11.053,11h2.135A6.024,6.024,0,0,1,9.789,13.727ZM11.3,10a10.2,10.2,0,0,0,0-4h2.35a5.885,5.885,0,0,1,0,4Z" />
  </g>
</svg>
